HIERARCHY
ROOT Hips
{
	OFFSET 0.000000 0.000000 0.000000
	CHANNELS 6 Xposition Yposition Zposition Yrotation Xrotation Zrotation 
	JOINT LeftHip
	{
		OFFSET 0.087450 0.000284 -0.000032
		CHANNELS 3 Yrotation Xrotation Zrotation
		JOINT LeftKnee
		{
			OFFSET 0.000000 -0.456155 0.000080
			CHANNELS 3 Yrotation Xrotation Zrotation
			JOINT LeftAnkle
			{
				OFFSET 0.000000 -0.392056 0.000378
				CHANNELS 3 Yrotation Xrotation Zrotation
				JOINT LeftToe
				{
					OFFSET 0.000000 -0.079886 0.174677
					CHANNELS 3 Yrotation Xrotation Zrotation
					End Site
					{
						OFFSET 0.000000 0.000000 0.000000
					}
				}
			}
		}
	}
	JOINT RightHip
	{
		OFFSET -0.087450 0.000305 -0.000034
		CHANNELS 3 Yrotation Xrotation Zrotation
		JOINT RightKnee
		{
			OFFSET 0.000000 -0.456155 0.000080
			CHANNELS 3 Yrotation Xrotation Zrotation
			JOINT RightAnkle
			{
				OFFSET 0.000000 -0.392056 0.000378
				CHANNELS 3 Yrotation Xrotation Zrotation
				JOINT RightToe
				{
					OFFSET 0.000000 -0.079886 0.174677
					CHANNELS 3 Yrotation Xrotation Zrotation
					End Site
					{
						OFFSET 0.000000 0.000000 0.000000
					}
				}
			}
		}
	}
	JOINT Chest
	{
		OFFSET 0.000000 0.105774 -0.011753
		CHANNELS 3 Yrotation Xrotation Zrotation
		JOINT Chest3
		{
			OFFSET 0.000000 0.191987 -0.009445
			CHANNELS 3 Yrotation Xrotation Zrotation
			JOINT Chest4
			{
				OFFSET 0.000000 0.091765 -0.000120
				CHANNELS 3 Yrotation Xrotation Zrotation
				JOINT Neck
				{
					OFFSET 0.000000 0.125437 0.000000
					CHANNELS 3 Yrotation Xrotation Zrotation
					JOINT Head
					{
						OFFSET 0.000000 0.087991 0.000056
						CHANNELS 3 Yrotation Xrotation Zrotation
						End Site
						{
							OFFSET 0.000000 0.000000 0.000000
						}
					}
				}
				JOINT LeftCollar
				{
					OFFSET 0.025606 0.070386 0.000000
					CHANNELS 3 Yrotation Xrotation Zrotation
					JOINT LeftShoulder
					{
						OFFSET 0.123264 0.000000 0.000000
						CHANNELS 3 Yrotation Xrotation Zrotation
						JOINT LeftElbow
						{
							OFFSET 0.282857 0.000000 0.000000
							CHANNELS 3 Yrotation Xrotation Zrotation
							JOINT LeftWrist
							{
								OFFSET 0.211242 0.000000 0.000104
								CHANNELS 3 Yrotation Xrotation Zrotation
								End Site
								{
									OFFSET 0.000000 0.000000 0.000000
								}
							}
						}
					}
				}
				JOINT RightCollar
				{
					OFFSET -0.025606 0.070386 0.000000
					CHANNELS 3 Yrotation Xrotation Zrotation
					JOINT RightShoulder
					{
						OFFSET -0.123264 0.000000 0.000000
						CHANNELS 3 Yrotation Xrotation Zrotation
						JOINT RightElbow
						{
							OFFSET -0.282857 0.000000 0.000000
							CHANNELS 3 Yrotation Xrotation Zrotation
							JOINT RightWrist
							{
								OFFSET -0.211242 0.000000 0.000104
								CHANNELS 3 Yrotation Xrotation Zrotation
								End Site
								{
									OFFSET 0.000000 0.000000 0.000000
								}
							}
						}
					}
				}
			}
		}
	}
}
MOTION
Frames: 11
Frame Time: 0.016667
0.000000 0.000000 0.000000 175.639192 -2.258563 -3.021896 13.320462 7.335239 4.848578 -1.211926 -0.603608 -0.049161 -0.399796 -3.405302 -0.572855 0.009406 -1.847656 -0.583277 -13.417362 4.333751 -0.105672 -1.269831 6.137369 -1.255789 -10.389773 -4.075888 5.095456 0.000093 -2.634599 -0.004030 -0.522424 1.027092 0.320508 -0.493758 -4.919353 0.286373 -0.175789 6.174263 0.090009 -7.301157 7.954005 0.954497 -14.888822 -20.728633 5.503402 0.421197 -0.379616 -9.907562 0.587594 -11.412160 -72.218196 -71.539893 -20.988408 -18.417847 16.081636 -4.154957 17.959887 -1.438753 0.555594 -1.582728 67.672041 -42.495848 3.842530 23.953955 -24.733479 -11.827238 -4.032430 1.542760 -9.007312 
0.000000 0.000000 0.000000 175.612775 -2.279938 -3.029627 13.312659 7.358594 4.867687 -1.215628 -0.589293 -0.049274 -0.360412 -3.411144 -0.574993 0.009588 -1.859325 -0.590853 -13.398926 4.356349 -0.095097 -1.266604 6.145872 -1.254610 -10.390236 -4.086579 5.088299 0.000077 -2.634803 -0.003362 -0.514422 1.022155 0.319804 -0.486579 -4.923739 0.285739 -0.173101 6.172624 0.090026 -7.312934 7.960515 0.955296 -14.911381 -20.715032 5.509583 0.419240 -0.367022 -9.912957 0.604064 -11.429787 -72.218956 -71.557608 -20.994799 -18.403104 16.076358 -4.160425 17.951655 -1.447348 0.585823 -1.570578 67.627677 -42.548667 3.888842 23.969573 -24.795006 -11.808161 -4.040038 1.510162 -8.935428 
0.000000 0.000000 0.000000 175.590657 -2.302466 -3.037955 13.311841 7.380485 4.887616 -1.223737 -0.573182 -0.049069 -0.328773 -3.417110 -0.577674 0.009746 -1.870874 -0.596914 -13.391846 4.380334 -0.084315 -1.263459 6.152288 -1.256347 -10.384979 -4.092726 5.079282 -0.000011 -2.637227 0.000460 -0.507284 1.017778 0.321500 -0.480387 -4.927627 0.287246 -0.170708 6.171169 0.090816 -7.326656 7.968731 0.952344 -14.935665 -20.698573 5.509056 0.416403 -0.361453 -9.917165 0.625862 -11.437108 -72.231284 -71.570863 -20.999738 -18.389974 16.075487 -4.167200 17.950173 -1.456553 0.601109 -1.558840 67.571410 -42.559905 3.948923 23.977270 -24.814282 -11.801279 -4.072772 1.506833 -8.940790 
0.000000 0.000000 0.000000 175.571319 -2.326127 -3.046512 13.314499 7.402592 4.907858 -1.234081 -0.557817 -0.048837 -0.301477 -3.421181 -0.580079 0.009901 -1.883065 -0.602427 -13.389609 4.405075 -0.073505 -1.260220 6.157885 -1.259362 -10.378823 -4.095212 5.068020 -0.000164 -2.641826 0.007104 -0.500584 1.013558 0.324428 -0.474698 -4.931376 0.289852 -0.168465 6.169764 0.092003 -7.341785 7.977804 0.947667 -14.961740 -20.680598 5.505676 0.412907 -0.358880 -9.920563 0.650699 -11.439069 -72.250102 -71.582186 -21.003250 -18.377972 16.076626 -4.174130 17.951149 -1.466740 0.609611 -1.547156 67.509104 -42.553592 4.015276 23.979268 -24.820538 -11.799504 -4.118968 1.517353 -8.973636 
0.000000 0.000000 0.000000 175.552581 -2.348386 -3.054699 13.320191 7.424938 4.927536 -1.244514 -0.549157 -0.049361 -0.277373 -3.419393 -0.580842 0.010071 -1.896179 -0.608549 -13.381808 4.426647 -0.061862 -1.254049 6.163855 -1.261034 -10.383091 -4.093259 5.051428 -0.000420 -2.649330 0.018164 -0.495249 1.008816 0.326634 -0.470156 -4.935590 0.291815 -0.166677 6.168185 0.092905 -7.356020 7.986076 0.945694 -14.987497 -20.663828 5.507300 0.407506 -0.354628 -9.923034 0.679862 -11.440043 -72.264798 -71.596321 -21.003322 -18.366583 16.077523 -4.178159 17.946947 -1.479474 0.620434 -1.534722 67.451439 -42.553456 4.073441 23.970127 -24.815113 -11.791694 -4.153597 1.543902 -8.978949 
0.000000 0.000000 0.000000 175.532934 -2.368028 -3.062754 13.332903 7.448407 4.947168 -1.254333 -0.552538 -0.050858 -0.259088 -3.408458 -0.579257 0.010271 -1.910587 -0.615972 -13.364747 4.443490 -0.048314 -1.240461 6.170075 -1.259650 -10.405515 -4.084689 5.024634 -0.000866 -2.661418 0.037262 -0.492134 1.003566 0.327638 -0.467479 -4.940256 0.292709 -0.165631 6.166436 0.093335 -7.366910 7.992448 0.948872 -15.009482 -20.650245 5.517728 0.400688 -0.347618 -9.924328 0.714860 -11.441099 -72.272689 -71.616975 -20.997803 -18.354799 16.077427 -4.177025 17.933118 -1.494399 0.638196 -1.520388 67.404624 -42.572584 4.112957 23.943464 -24.792950 -11.769195 -4.165043 1.600590 -8.918467 
0.000000 0.000000 0.000000 175.513886 -2.386268 -3.070439 13.348652 7.472107 4.966246 -1.264236 -0.562624 -0.053098 -0.243995 -3.391666 -0.576023 0.010489 -1.925916 -0.624003 -13.342123 4.457158 -0.033918 -1.223939 6.176670 -1.256917 -10.438374 -4.071691 4.992510 -0.001420 -2.676405 0.060780 -0.490382 0.997794 0.327919 -0.465944 -4.945386 0.292957 -0.165040 6.164513 0.093480 -7.376908 7.998024 0.954756 -15.031154 -20.637853 5.533167 0.391964 -0.338928 -9.924700 0.754174 -11.441173 -72.276457 -71.640436 -20.988849 -18.343640 16.077086 -4.173005 17.914102 -1.511867 0.658286 -1.505317 67.362387 -42.597929 4.144363 23.905725 -24.759050 -11.740745 -4.164736 1.673435 -8.830498 
0.000000 0.000000 0.000000 175.497777 -2.404219 -3.076444 13.355041 7.493409 4.982342 -1.274186 -0.569365 -0.056193 -0.223067 -3.374917 -0.571874 0.010703 -1.941336 -0.631716 -13.314618 4.468397 -0.021039 -1.215093 6.185213 -1.255353 -10.469793 -4.060036 4.966591 -0.001865 -2.689980 0.079446 -0.488346 0.990775 0.326949 -0.464044 -4.951625 0.292090 -0.164351 6.162176 0.093216 -7.391069 8.004443 0.960436 -15.060774 -20.623403 5.550064 0.378624 -0.327111 -9.924797 0.794546 -11.441451 -72.273541 -71.660319 -20.980912 -18.335633 16.076503 -4.169860 17.895596 -1.534498 0.675969 -1.492174 67.316619 -42.614015 4.184757 23.870661 -24.729877 -11.721227 -4.162417 1.722506 -8.774830 
0.000000 0.000000 0.000000 175.487015 -2.421166 -3.080378 13.343203 7.510039 4.994200 -1.284876 -0.568381 -0.061079 -0.189547 -3.360035 -0.566046 0.010916 -1.957050 -0.639118 -13.277230 4.476163 -0.009578 -1.220942 6.197194 -1.256811 -10.498299 -4.051800 4.953213 -0.002095 -2.700976 0.088882 -0.485605 0.981468 0.323918 -0.461327 -4.959897 0.289385 -0.163419 6.159079 0.092286 -7.412594 8.011893 0.964678 -15.104002 -20.606320 5.567512 0.357040 -0.309976 -9.924990 0.834669 -11.443072 -72.262219 -71.676414 -20.975870 -18.331105 16.075948 -4.169025 17.877221 -1.567444 0.687666 -1.482114 67.261164 -42.608641 4.247613 23.847716 -24.709712 -11.718659 -4.161704 1.724898 -8.796129 
0.000000 0.000000 0.000000 175.479190 -2.437821 -3.082635 13.321996 7.524279 5.003059 -1.295614 -0.564056 -0.066827 -0.150189 -3.345197 -0.559305 0.011126 -1.972854 -0.646201 -13.234961 4.481497 0.000374 -1.234468 6.211120 -1.259439 -10.525356 -4.044894 4.946043 -0.002211 -2.710565 0.093462 -0.482577 0.970914 0.319637 -0.458240 -4.969278 0.285563 -0.162388 6.155567 0.090949 -7.438283 8.020187 0.968701 -15.155166 -20.587171 5.586380 0.330844 -0.289710 -9.924927 0.875843 -11.444905 -72.244214 -71.688934 -20.971851 -18.329718 16.075151 -4.169060 17.859358 -1.605557 0.696957 -1.473995 67.202279 -42.593944 4.319350 23.827397 -24.694331 -11.724962 -4.159196 1.703368 -8.849638 
0.000000 0.000000 0.000000 175.469425 -2.457436 -3.083071 13.305604 7.540331 5.010229 -1.304285 -0.559489 -0.070751 -0.116228 -3.330827 -0.554686 0.011309 -1.987302 -0.652017 -13.203504 4.488281 0.006159 -1.245220 6.224088 -1.260194 -10.543493 -4.038834 4.937606 -0.002302 -2.717948 0.097038 -0.478866 0.961507 0.316015 -0.454607 -4.977639 0.282329 -0.161131 6.152437 0.089853 -7.463585 8.030405 0.973267 -15.205527 -20.564433 5.605790 0.308202 -0.271438 -9.924166 0.918716 -11.444731 -72.222123 -71.692132 -20.967682 -18.332995 16.073308 -4.169407 17.848852 -1.636009 0.709831 -1.467029 67.150387 -42.590993 4.376547 23.794990 -24.687463 -11.730799 -4.154280 1.686508 -8.860996 
